<svg xmlns="http://www.w3.org/2000/svg" version="1.1" xmlns:xlink="http://www.w3.org/1999/xlink" xmlns:svgjs="http://svgjs.dev/svgjs" width="1920" height="1080" preserveAspectRatio="none" viewBox="0 0 1920 1080">
    <g mask="url(&quot;#SvgjsMask1026&quot;)" fill="none">
        <rect width="1920" height="1080" x="0" y="0" fill="#1e3266"></rect>
        <path d="M2016 1080L0 1080 L0 555.06Q96.89 491.95, 160 588.84Q265.23 598.07, 256 703.29Q238.39 589.68, 352 572.07Q416.14 476.21, 512 540.35Q592.09 524.44, 608 604.53Q665.04 565.57, 704 622.61Q762.45 521.06, 864 579.5Q940.82 560.32, 960 637.13Q984.37 565.5, 1056 589.87Q1080.44 518.31, 1152 542.75Q1261.9 492.65, 1312 602.56Q1365.1 559.66, 1408 612.76Q1508.05 616.81, 1504 716.86Q1476.28 593.14, 1600 565.42Q1724.29 529.71, 1760 654.01Q1774.76 572.77, 1856 587.53Q1943.29 514.82, 2016 602.11z" fill="#182f5d"></path>
        <path d="M2080 1080L0 1080 L0 698.94Q48.23 651.17, 96 699.41Q154.38 661.79, 192 720.17Q315.92 684.09, 352 808Q408.38 768.38, 448 824.76Q503.87 720.63, 608 776.5Q717.79 726.29, 768 836.07Q821.63 793.7, 864 847.32Q906 729.32, 1024 771.32Q1030.36 681.68, 1120 688.04Q1211.77 619.81, 1280 711.57Q1391.07 662.63, 1440 773.7Q1531.47 705.17, 1600 796.65Q1700.55 737.2, 1760 837.75Q1794.09 711.84, 1920 745.92Q1978.43 644.35, 2080 702.77z" fill="#25467d"></path>
        <path d="M1952 1080L0 1080 L0 889.22Q66.38 795.6, 160 861.97Q272.12 814.09, 320 926.21Q378.65 888.87, 416 947.52Q479.35 850.87, 576 914.22Q646.17 888.39, 672 958.56Q703.79 894.35, 768 926.13Q804.35 866.48, 864 902.83Q900.99 779.82, 1024 816.81Q1125.77 758.58, 1184 860.35Q1323.3 839.65, 1344 978.95Q1369.92 908.88, 1440 934.8Q1495.65 830.45, 1600 886.11Q1617.53 807.63, 1696 825.16Q1794.91 764.08, 1856 862.99Q1937.25 848.24, 1952 929.49z" fill="#356cb1"></path>
        <path d="M1952 1080L0 1080 L0 1129.53Q-0.65 1032.88, 96 1032.22Q108.78 949, 192 961.79Q279.99 889.78, 352 977.77Q450.65 980.42, 448 1079.08Q513.62 1048.69, 544 1114.31Q618.04 1028.35, 704 1102.38Q705.4 943.78, 864 945.18Q917.76 902.94, 960 956.7Q1117.75 954.45, 1120 1112.21Q1140.96 1037.17, 1216 1058.13Q1221.88 968.01, 1312 973.89Q1385.38 887.27, 1472 960.65Q1624.43 953.09, 1632 1105.52Q1706.3 1019.82, 1792 1094.12Q1857.45 999.57, 1952 1065.02z" fill="white"></path>
    </g>
    <defs>
        <mask id="SvgjsMask1026">
            <rect width="1920" height="1080" fill="#ffffff"></rect>
        </mask>
    </defs>
</svg>